inDegrees=no
num_controls=7
num_derivatives=13
num_iterations=104
num_multipliers=7
num_parameters=0
num_slacks=7
num_states=26
objective=0.445702
objective_accelerations=0.056630
objective_balance=0.003578
objective_effort=0.022898
objective_height=0.357010
objective_ligament=0.005587
solver_duration=1559.121531
status=Solve_Succeeded
success=true
DataType=double
version=3
OpenSimVersion=4.5
endheader
time	/jointset/ground_pelvis/pelvis_tilt/value	/jointset/ground_pelvis/pelvis_tx/value	/jointset/ground_pelvis/pelvis_ty/value	/jointset/hip_l/hip_flexion_l/value	/jointset/hip_l/hip_adduction_l/value	/jointset/hip_l/hip_rotation_l/value	/jointset/back/lumbar_extension/value	/jointset/patellofemoral_l/patellar_flexion_l/value	/jointset/knee_l/knee_flexion_l/value	/jointset/knee_l/knee_adduction_l/value	/jointset/knee_l/knee_rotation_l/value	/jointset/ankle_l/ankle_angle_l/value	/jointset/subtalar_l/subtalar_angle_l/value	/jointset/ground_pelvis/pelvis_tilt/speed	/jointset/ground_pelvis/pelvis_tx/speed	/jointset/ground_pelvis/pelvis_ty/speed	/jointset/hip_l/hip_flexion_l/speed	/jointset/hip_l/hip_adduction_l/speed	/jointset/hip_l/hip_rotation_l/speed	/jointset/back/lumbar_extension/speed	/jointset/patellofemoral_l/patellar_flexion_l/speed	/jointset/knee_l/knee_flexion_l/speed	/jointset/knee_l/knee_adduction_l/speed	/jointset/knee_l/knee_rotation_l/speed	/jointset/ankle_l/ankle_angle_l/speed	/jointset/subtalar_l/subtalar_angle_l/speed	/forceset/tau_hip_flexion_l	/forceset/tau_hip_adduction_l	/forceset/tau_hip_rotation_l	/forceset/tau_knee_flexion_l	/forceset/tau_ankle_angle_l	/forceset/tau_subtalar_angle_l	/forceset/tau_lumbar_extension	lambda_cid13_p0	lambda_cid13_p1	lambda_cid13_p2	lambda_cid13_p3	lambda_cid13_p4	lambda_cid13_p5	lambda_cid14_p0	/jointset/ground_pelvis/pelvis_tilt/accel	/jointset/ground_pelvis/pelvis_tx/accel	/jointset/ground_pelvis/pelvis_ty/accel	/jointset/hip_l/hip_flexion_l/accel	/jointset/hip_l/hip_adduction_l/accel	/jointset/hip_l/hip_rotation_l/accel	/jointset/back/lumbar_extension/accel	/jointset/patellofemoral_l/patellar_flexion_l/accel	/jointset/knee_l/knee_flexion_l/accel	/jointset/knee_l/knee_adduction_l/accel	/jointset/knee_l/knee_rotation_l/accel	/jointset/ankle_l/ankle_angle_l/accel	/jointset/subtalar_l/subtalar_angle_l/accel	gamma_cid13_p0	gamma_cid13_p1	gamma_cid13_p2	gamma_cid13_p3	gamma_cid13_p4	gamma_cid13_p5	gamma_cid14_p0
0.5	-0.3450588998400951	-0.03976148452475269	0.7614717506870157	1.097715538828427	-0.4377105332142522	-0.2245823802581161	-0.2542071051650662	0.7948066334086782	0.7948066334090498	-0.1350383731551524	-0.1589635810860478	0.09950808983673654	-0.03809007146507256	-0.7820134700033163	-0.2243239154281467	-0.5245237122605277	2.475673193935578	-0.2077682465993584	0.7486099943910771	-0.1162052777991488	1.955792700603864	1.95579270060395	0.1107938954088323	-0.08634230013448262	0.4296198350101855	-0.01983811491882585	-0.1727129660969418	0.0200136403679981	-0.01024918878057274	-0.2118842494238373	0.06246967905971484	0.04632757844181719	0.1695229747135647	-12.7380528585029	-21.06211058624199	6.645584815541049	-5.159412777791899	-522.2498457757708	-64.31455954293871	-25.74995256719967	0.7984521341532005	0.5764165978666181	-0.4582161516347598	-1.308593481475423	0.7487673399447882	-0.1616066442896018	1.069055366092087	-1.23083269317387	-1.23083269317393	0.07872960236453061	0.1865855745035563	-0.5066952340897405	0.5451801670584093	-5.439720800104505e-07	-6.01958282133859e-07	2.533825321122838e-06	9.233972222130905e-08	-6.14207049091869e-07	2.936008240857435e-08	-4.5787652715056e-07
0.51	-0.3528371620808	-0.04197562904799217	0.756204754040631	1.122401885802336	-0.4397519898086139	-0.2171033786646646	-0.2553169184728928	0.8142999125885449	0.8142999125888672	-0.133930857254501	-0.1598173689067824	0.1037777184118686	-0.03826319284416414	-0.7735253251199476	-0.2184858494845283	-0.528763724061895	2.461256767212203	-0.2005053231679094	0.7470691846547005	-0.1057952168256425	1.942601062357529	1.942601062357669	0.1107193402120274	-0.08442167583074127	0.424232664210346	-0.01479491882960198	-0.1782710604724093	0.0208810348192439	-0.01037607424583504	-0.2144348537059314	0.0620158071010465	0.04669855254437442	0.1737544732662243	-13.08340370800008	-21.1425306101595	6.635302531791497	-5.068269431493277	-525.8028390395444	-63.87733708120353	-24.85478718994464	0.8909727648944699	0.5904028066555417	-0.390238484765614	-1.559165512797134	0.7174086032877404	-0.1688984176621856	1.021306504032733	-1.402544804299783	-1.402544804291679	-0.04900156908818858	0.1944135102577787	-0.5657064452028926	0.4823156391313841	-5.511871896989038e-07	-4.136839303117072e-07	2.739911823332894e-06	1.469943926239466e-07	-6.119978363716374e-07	9.802686111898373e-08	-4.587842498015229e-07
0.52	-0.3605271474527786	-0.04413081266898621	0.7508986883181572	1.146933868860007	-0.4417203464169526	-0.2096435012244473	-0.2563237661627736	0.8336534323031582	0.8336534323034356	-0.1328237776034873	-0.1606520279540993	0.1079912795905477	-0.03838619700050809	-0.7643580962579468	-0.2125317349790558	-0.532337527478384	2.444800410687684	-0.1931482493947477	0.7447851637443024	-0.09561215421002386	1.927840807553734	1.927840807553928	0.1107066454798144	-0.08251654544906473	0.4184063557196329	-0.009814670369297573	-0.1838291548478691	0.02174842927048794	-0.01050295971102244	-0.2169854579880325	0.06156193514237562	0.04706952664692813	0.1779859718188929	-13.43218415338831	-21.22392191747536	6.626972325959205	-5.011251957168312	-529.4343331336654	-63.50416013254603	-23.96073697456732	0.9342689298796436	0.5996263102374449	-0.3249744746590931	-1.716579441704384	0.7675974082873238	-0.310248879093927	1.02365569451454	-1.544556004666038	-1.544556004666037	0.09110169528289408	0.1834867900905912	-0.5945227722644394	0.5325906412745197	-4.971941617989361e-07	-3.482089932989782e-07	2.525748913795966e-06	1.383586277810826e-07	-5.480115947653603e-07	1.49771319119541e-07	-4.205886796063914e-07
0.53	-0.3681223185944193	-0.04622591700845376	0.7455602349056941	1.171291519370158	-0.4436145319646388	-0.2022100982522902	-0.2572298767757138	0.8528517525445979	0.8528517525448689	-0.1317161072377342	-0.1614675668189426	0.1121445865693805	-0.03845945729303046	-0.7545708931325601	-0.2064727824584514	-0.5352371987164289	2.426395846113859	-0.1856814100208663	0.7418028585879427	-0.08566184449937433	1.911570144871407	1.911570144871373	0.1108118019254892	-0.08057822210809452	0.4121918421408601	-0.00485275214696019	-0.189148325670355	0.02218220133572241	-0.01059285950512456	-0.2198638722218254	0.06149748648055878	0.04736025333779682	0.1820084475319028	-13.65884331825043	-21.2911555391402	6.615596540880578	-4.998274300089726	-533.0556784481777	-63.1471658980766	-23.06900629230957	1.01667172887163	0.6115090559349985	-0.2551728842312871	-1.952541873807767	0.7370733121153309	-0.3064441098715691	0.9729371911042696	-1.706205674172733	-1.706205674206815	-0.03208986592221488	0.2014450610683394	-0.6443871564208479	0.4754566758018448	-4.621243006468615e-07	-2.777012228895595e-07	2.4184733078272e-06	1.440993211801483e-07	-5.067358580939336e-07	2.053640911704414e-07	-3.959571692477587e-07
0.54	-0.3756164725598061	-0.04825993595612261	0.7401962428936796	1.195455094852854	-0.4454338798965507	-0.1948093628868884	-0.2580380405751941	0.871879789304383	0.8718797893046442	-0.1306078478045521	-0.1622632344593819	0.1162338541112783	-0.03848360555071177	-0.7441546610070363	-0.2003146566193179	-0.537445247388643	2.405985405196588	-0.1781807262399145	0.738251642393	-0.07602279151816117	1.893784111222811	1.89378411122255	0.1108244589658853	-0.07854230056839973	0.4055984683326014	7.73659891758669e-06	-0.1944674964928234	0.02261597340096336	-0.01068275929924361	-0.2227422864556169	0.06143303781874209	0.04765098002867318	0.1860309232449276	-13.88997322721236	-21.35844640478745	6.605190926298484	-5.011086093561491	-536.7708455597455	-62.84582516385569	-22.18125461362258	1.060074729907035	0.6194609739432635	-0.1866499614929119	-2.117754710393549	0.7743662897014016	-0.4240310868105008	0.9614043486272625	-1.847630197919802	-1.847630197919794	0.07260181422714371	0.2030064298355071	-0.6702948181616091	0.5123047459826029	-4.479907090882011e-07	-2.016252112752924e-07	2.429455995167891e-06	1.657458832724129e-07	-4.905866375206397e-07	2.652145723834236e-07	-3.863327038146145e-07
0.55	-0.3830034941233336	-0.0502319862989503	0.7348136368299523	1.219404898643547	-0.4471780044724372	-0.1874468620054576	-0.2587514514128355	0.8907225494839511	0.8907225494838579	-0.1294998063156434	-0.1630379888964829	0.120255334699211	-0.03845958717714807	-0.733149014846763	-0.1940886122419139	-0.5389585163500505	2.38365661144779	-0.170640076268544	0.7341416417559936	-0.06673145988916902	1.874528446577887	1.874528446577762	0.1107833011611688	-0.07640526623248303	0.3986371946030947	0.004778345795235401	-0.1996657562178883	0.02296780231168827	-0.01071595875632371	-0.2255344762150835	0.06120596292386087	0.04777652038056915	0.18990004902666	-14.17203914556971	-21.33870882031272	6.573633549336961	-4.873164141280359	-540.3728118734206	-62.43032875916261	-21.30098929758796	1.135845814125999	0.6252316359346204	-0.1161443680360732	-2.33832202303316	0.7442374727537232	-0.420835351784062	0.9021849881488208	-2.000380098147803	-2.000380098127374	-0.0425085243309959	0.2200431775026613	-0.7180948099523274	0.4565414531436198	-4.298822075020725e-07	-1.214393470093182e-07	2.427457821736747e-06	1.862385309986721e-07	-4.70834383111602e-07	3.220170833577447e-07	-3.736762152514403e-07
0.5600000000000001	-0.3902774519742513	-0.0521415651047448	0.7294194022756965	1.24312183843357	-0.4488466579242302	-0.1801287312903225	-0.2593741114505639	0.9093655839169976	0.9093655839165486	-0.1283921831940875	-0.1637911747418132	0.1242053923179276	-0.03838844222228374	-0.7215419184849502	-0.1878203492126781	-0.5397709454943201	2.359412605062583	-0.1630865014212204	0.7293776091334544	-0.05787263153563236	1.8538389619182	1.853838961918212	0.1107407854960557	-0.07422858221524971	0.391313874489303	0.009433052859043748	-0.2048640159429425	0.02331963122242043	-0.01074915821346531	-0.228326665974546	0.06097888802898112	0.04790206073247533	0.1937691748084002	-14.45746148520961	-21.31885528902518	6.542598107262466	-4.765288183406362	-544.0542063314538	-62.06661961434892	-20.43226957370577	1.180364770214943	0.6279047043096496	-0.0464819980653019	-2.500797237675049	0.7769512648920426	-0.5548374839170234	0.8749036935361648	-2.13439420087221	-2.1343942008722	0.07233024214782553	0.2109363660988335	-0.742704095018582	0.4891243194807146	-4.070038138829822e-07	-3.632165956129589e-08	2.409882615379399e-06	2.053464814857246e-07	-4.467584880996719e-07	3.751620300456724e-07	-3.573812989322306e-07
0.5700000000000001	-0.3974325463434761	-0.0539883198614541	0.7240205462765051	1.266587109946362	-0.4504396786156067	-0.1728611666674197	-0.2599103445189094	0.9277947039274267	0.9277947039274101	-0.1272850670009618	-0.1645221690661322	0.1280804947940794	-0.03827125712395955	-0.7093834099558406	-0.1815295340682467	-0.5398817479274306	2.333333151464055	-0.155522345873675	0.724039126917651	-0.04946053802754063	1.831756256486539	1.831756256486518	0.1106673147167429	-0.07196421239999137	0.3836517169878373	0.01397858572152133	-0.2098582547790541	0.02343772266026404	-0.01072566873482378	-0.2312035900592127	0.0608184528550143	0.04792208162507718	0.1974393430599191	-14.71865323770682	-21.25366439332524	6.500046416556154	-4.596727931747649	-547.6221335494869	-61.6663514830726	-19.5770553733384	1.247568868970453	0.6298733596838477	0.02430996858968866	-2.707867437970621	0.745130879561258	-0.5380677868068893	0.8113787953097378	-2.279456633717935	-2.279456633722714	-0.04939214950199793	0.2355829497552057	-0.7861801203173597	0.4331780059168534	-3.810899722274214e-07	4.373736683945552e-08	2.374112171305325e-06	2.212873099867664e-07	-4.197377480893504e-07	4.225237387860111e-07	-3.389156836273676e-07
